# xmcd CD database file
#
# Track frame offsets:
#	150
#	13395
#	23440
#	33909
#	45906
#	60996
#	74109
#	87918
#	100491
#	111735
#	124133
#	135979
#	148659
#	159723
#	170450
#	181430
#
# Disc length: 2569 seconds
#
# Revision: 0
# Processed by: cddbd v1.5.2PL0 Copyright (c) Steve Scherf et al.
# Submitted via: CDex 1.77
#
DISCID=df0a0710
DTITLE=Various Artist - Country Girls
DYEAR=1900
DGENRE=Country
TTITLE0=Billie Jo Spears - Fever
TTITLE1=Billie Jo Spears - I Stayed Long Enough
TTITLE2=Billie Jo Spears - I'm So Lonesome I Could Cry
TTITLE3=Connie Francis - Among My Souvenirs
TTITLE4=Diana Trask - I Fall To Pieces
TTITLE5=Jo Ann Steele - Love On Borrowed Time
TTITLE6=Jo Ann Steele - Lovin' You Lovin' Me
TTITLE7=Kitty Wells - Makin' Believe
TTITLE8=Kitty Wells - On The Lonely Side Of Town
TTITLE9=Kitty Wells - One By One
TTITLE10=Kitty Wells - You And Me (And The Power In Your Heart)
TTITLE11=Lynn Anderson - Rose Garden
TTITLE12=Patsy Cline - Hidin' Out
TTITLE13=Patsy Cline - Honky Tonk Merry Go Round
TTITLE14=Patsy Cline - Stop The World
TTITLE15=Patsy Cline - Walkin' After Midnight
EXTD=
EXTT0=
EXTT1=
EXTT2=
EXTT3=
EXTT4=
EXTT5=
EXTT6=
EXTT7=
EXTT8=
EXTT9=
EXTT10=
EXTT11=
EXTT12=
EXTT13=
EXTT14=
EXTT15=
PLAYORDER=
